<svg viewBox="0 0 1440 900" xmlns="http://www.w3.org/2000/svg" xmlns:xlink="http://www.w3.org/1999/xlink">
  <defs>
    <style>
      .dashboard-bg { fill: #f5f5f5; }
      .dashboard-text { fill: #333; font-family: -apple-system, BlinkMacSystemFont, 'Segoe UI', Roboto; }
      .dashboard-title { font-size: 24px; font-weight: 600; }
      .dashboard-subtitle { font-size: 14px; fill: #666; }
    </style>
  </defs>
  <rect class="dashboard-bg" width="1440" height="900" />
  <rect x="0" y="0" width="1440" height="60" fill="#fff" stroke="#e5e5e5" stroke-width="1"/>
  <circle cx="20" cy="30" r="6" fill="#ff5f57"/>
  <circle cx="46" cy="30" r="6" fill="#febc2e"/>
  <circle cx="72" cy="30" r="6" fill="#28c840"/>
  <text x="720" y="35" text-anchor="middle" class="dashboard-subtitle">app.mechmind.it/dashboard</text>
  <text x="72" y="150" class="dashboard-text dashboard-title">Dashboard MechMind OS</text>
  <rect x="72" y="200" width="250" height="150" fill="#fff" stroke="#e5e5e5" stroke-width="1" rx="8"/>
  <text x="97" y="230" class="dashboard-subtitle">Ordini di lavoro</text>
  <text x="97" y="320" class="dashboard-text" font-size="32" font-weight="600">12.400+</text>
  <rect x="350" y="200" width="250" height="150" fill="#fff" stroke="#e5e5e5" stroke-width="1" rx="8"/>
  <text x="375" y="230" class="dashboard-subtitle">Fatture SDI</text>
  <text x="375" y="320" class="dashboard-text" font-size="32" font-weight="600">8.200+</text>
  <rect x="628" y="200" width="250" height="150" fill="#fff" stroke="#e5e5e5" stroke-width="1" rx="8"/>
  <text x="653" y="230" class="dashboard-subtitle">Uptime</text>
  <text x="653" y="320" class="dashboard-text" font-size="32" font-weight="600">99,9%</text>
  <rect x="906" y="200" width="250" height="150" fill="#fff" stroke="#e5e5e5" stroke-width="1" rx="8"/>
  <text x="931" y="230" class="dashboard-subtitle">Officine beta</text>
  <text x="931" y="320" class="dashboard-text" font-size="32" font-weight="600">45+</text>
  <rect x="72" y="400" width="1296" height="400" fill="#fff" stroke="#e5e5e5" stroke-width="1" rx="8"/>
  <text x="720" y="620" text-anchor="middle" class="dashboard-text" font-size="18">Anteprima Dashboard — Funzionalità Complete</text>
</svg>
